<svg xmlns="http://www.w3.org/2000/svg" xmlns:xlink="http://www.w3.org/1999/xlink" width="31" height="31" viewBox="0 0 31 31"><defs><rect id="b" width="540" height="329" rx="4"/><filter id="a" width="118.1%" height="129.8%" x="-9.1%" y="-14.3%" filterUnits="objectBoundingBox"><feOffset dy="2" in="SourceAlpha" result="shadowOffsetOuter1"/><feGaussianBlur in="shadowOffsetOuter1" result="shadowBlurOuter1" stdDeviation="16"/><feColorMatrix in="shadowBlurOuter1" values="0 0 0 0 0 0 0 0 0 0 0 0 0 0 0 0 0 0 0.102921196 0"/></filter></defs><g fill="none" fill-rule="evenodd"><path fill="#F7F7F7" d="M-779-1H661v519H-779z"/><g transform="translate(-39 -39)"><use fill="#000" filter="url(#a)" xlink:href="#b"/><use fill="#FFF" xlink:href="#b"/></g><g stroke="#292C2F" stroke-width="1.25"><path d="M20.31 15.31l7.316 7.316a4.242 4.242 0 1 1-6 6l-7-7m-1.04-9.04l-3.96-3.96-.01-2.253L5.373 2.13 1.13 6.374l4.243 4.243 2.254.01 3.87 3.872"/><path stroke-linecap="square" d="M26 8l-3-3 3.466-3.466A5.974 5.974 0 0 0 24 1a6 6 0 0 0-6 6c0 .49.065.965.176 1.42L1 24l6 6 15.58-17.176c.455.11.93.176 1.42.176a6 6 0 0 0 6-6c0-.88-.194-1.713-.534-2.466L26 8z"/></g></g></svg>
